# xmcd CD database file
# Copyright (C) 1995-1998 Ti Kan
#
# Track frame offsets:
#	187
#	6285
#	22200
#	48420
#	72165
#	94607
#	116695
#	137862
#	158460
#	183637
#	204497
#	228307
#	245785
#	267150
#
# Disc length: 3956 seconds
#
# Revision: 2
# Processed by: cddbd v1.4b41PL1 Copyright (c) Steve Scherf et al.
# Submitted via: CDex 1.30
#
DISCID=c30f720e
DTITLE=Mo Thugs Family Scriptures (Featuring Bone) - Mo Thugs Family Script
DYEAR=2000
DGENRE=Blues
TTITLE0=Intro
TTITLE1=Poetic Hustla's - Searchin' 4 Peace
TTITLE2=II Tru - Ghetto Blues
TTITLE3=Graveyard Shift - Killing Fields
TTITLE4=Ken Dawg - Ain't No Reason
TTITLE5=Cre - Take Your Time
TTITLE6=II Tur - Welcome To My World
TTITLE7=Mo Thugs Family - Thug Revolution
TTITLE8=Cre - Here With Me
TTITLE9=Ken Dawg - Playa In Me
TTITLE10=Graveyard Shift - Rumors and War
TTITLE11=II Tru - II Tru
TTITLE12=Souljah Boy - Low Down
TTITLE13=Mo Thugs Family - Family Scriptures
EXTD=\nYEAR: 2000  ID3G:   0
EXTT0=
EXTT1=
EXTT2=
EXTT3=
EXTT4=
EXTT5=
EXTT6=
EXTT7=
EXTT8=
EXTT9=
EXTT10=
EXTT11=
EXTT12=
EXTT13=
PLAYORDER=
